<svg version="1.1" xmlns="http://www.w3.org/2000/svg" viewBox="0 0 1443.4395217895508 1995.8125" width="1443.4395217895508" height="1995.8125" filter="invert(93%) hue-rotate(180deg)">
  <!-- svg-source:excalidraw -->
  
  <defs>
    <style class="style-fonts">
      @font-face {
        font-family: "Virgil";
        src: url("https://excalidraw.com/Virgil.woff2");
      }
      @font-face {
        font-family: "Cascadia";
        src: url("https://excalidraw.com/Cascadia.woff2");
      }
    </style>
  </defs>
  <rect x="0" y="0" width="1443.4395217895508" height="1995.8125" fill="#ffffff"></rect><g stroke-linecap="round" transform="translate(165.93753814697266 127.9374885559082) rotate(0 106.9999885559082 137.50000953674316)"><path d="M32 0 M32 0 C82.56 0, 133.11 0, 182 0 M32 0 C85.27 0, 138.54 0, 182 0 M182 0 C203.33 0, 214 10.67, 214 32 M182 0 C203.33 0, 214 10.67, 214 32 M214 32 C214 84.28, 214 136.56, 214 243 M214 32 C214 93.07, 214 154.13, 214 243 M214 243 C214 264.33, 203.33 275, 182 275 M214 243 C214 264.33, 203.33 275, 182 275 M182 275 C136.81 275, 91.62 275, 32 275 M182 275 C135.57 275, 89.13 275, 32 275 M32 275 C10.67 275, 0 264.33, 0 243 M32 275 C10.67 275, 0 264.33, 0 243 M0 243 C0 178.54, 0 114.08, 0 32 M0 243 C0 189.18, 0 135.37, 0 32 M0 32 C0 10.67, 10.67 0, 32 0 M0 32 C0 10.67, 10.67 0, 32 0" stroke="#000000" stroke-width="1" fill="none"></path></g><g transform="translate(217.93750762939453 227.4374771118164) rotate(0 40.5712890625 23)"><text x="0" y="0" font-family="Helvetica, Segoe UI Emoji" font-size="20px" fill="#000000" text-anchor="start" style="white-space: pre;" direction="ltr" dominant-baseline="text-before-edge">Client</text><text x="0" y="23" font-family="Helvetica, Segoe UI Emoji" font-size="20px" fill="#000000" text-anchor="start" style="white-space: pre;" direction="ltr" dominant-baseline="text-before-edge">React JS</text></g><g stroke-linecap="round" transform="translate(507.93750762939453 118.93749237060547) rotate(0 106.9999885559082 137.50000953674316)"><path d="M32 0 M32 0 C75.08 0, 118.16 0, 182 0 M32 0 C86.99 0, 141.99 0, 182 0 M182 0 C203.33 0, 214 10.67, 214 32 M182 0 C203.33 0, 214 10.67, 214 32 M214 32 C214 99.43, 214 166.86, 214 243 M214 32 C214 74.59, 214 117.18, 214 243 M214 243 C214 264.33, 203.33 275, 182 275 M214 243 C214 264.33, 203.33 275, 182 275 M182 275 C145.11 275, 108.22 275, 32 275 M182 275 C147.27 275, 112.53 275, 32 275 M32 275 C10.67 275, 0 264.33, 0 243 M32 275 C10.67 275, 0 264.33, 0 243 M0 243 C0 190.02, 0 137.04, 0 32 M0 243 C0 176.81, 0 110.61, 0 32 M0 32 C0 10.67, 10.67 0, 32 0 M0 32 C0 10.67, 10.67 0, 32 0" stroke="#000000" stroke-width="1" fill="none"></path></g><g transform="translate(559.9374771118164 218.43748092651367) rotate(0 46.123046875 34.5)"><text x="0" y="0" font-family="Helvetica, Segoe UI Emoji" font-size="20px" fill="#000000" text-anchor="start" style="white-space: pre;" direction="ltr" dominant-baseline="text-before-edge">server</text><text x="0" y="23" font-family="Helvetica, Segoe UI Emoji" font-size="20px" fill="#000000" text-anchor="start" style="white-space: pre;" direction="ltr" dominant-baseline="text-before-edge"></text><text x="0" y="46" font-family="Helvetica, Segoe UI Emoji" font-size="20px" fill="#000000" text-anchor="start" style="white-space: pre;" direction="ltr" dominant-baseline="text-before-edge">Express.js</text></g><g stroke-linecap="round" transform="translate(827.9375076293945 113.93749237060547) rotate(0 106.9999885559082 137.50000953674316)"><path d="M32 0 M32 0 C64.59 0, 97.17 0, 182 0 M32 0 C68.27 0, 104.55 0, 182 0 M182 0 C203.33 0, 214 10.67, 214 32 M182 0 C203.33 0, 214 10.67, 214 32 M214 32 C214 91.43, 214 150.85, 214 243 M214 32 C214 77.18, 214 122.35, 214 243 M214 243 C214 264.33, 203.33 275, 182 275 M214 243 C214 264.33, 203.33 275, 182 275 M182 275 C129.83 275, 77.67 275, 32 275 M182 275 C134.98 275, 87.96 275, 32 275 M32 275 C10.67 275, 0 264.33, 0 243 M32 275 C10.67 275, 0 264.33, 0 243 M0 243 C0 169.77, 0 96.54, 0 32 M0 243 C0 168.24, 0 93.49, 0 32 M0 32 C0 10.67, 10.67 0, 32 0 M0 32 C0 10.67, 10.67 0, 32 0" stroke="#000000" stroke-width="1" fill="none"></path></g><g transform="translate(879.9374771118164 213.43748092651367) rotate(0 44.4677734375 46)"><text x="0" y="0" font-family="Helvetica, Segoe UI Emoji" font-size="20px" fill="#000000" text-anchor="start" style="white-space: pre;" direction="ltr" dominant-baseline="text-before-edge">db</text><text x="0" y="23" font-family="Helvetica, Segoe UI Emoji" font-size="20px" fill="#000000" text-anchor="start" style="white-space: pre;" direction="ltr" dominant-baseline="text-before-edge"></text><text x="0" y="46" font-family="Helvetica, Segoe UI Emoji" font-size="20px" fill="#000000" text-anchor="start" style="white-space: pre;" direction="ltr" dominant-baseline="text-before-edge">MongoDB</text><text x="0" y="69" font-family="Helvetica, Segoe UI Emoji" font-size="20px" fill="#000000" text-anchor="start" style="white-space: pre;" direction="ltr" dominant-baseline="text-before-edge"></text></g><g transform="translate(463.75003814697266 10) rotate(0 77.9931640625 11.5)"><text x="0" y="0" font-family="Helvetica, Segoe UI Emoji" font-size="20px" fill="#000000" text-anchor="start" style="white-space: pre;" direction="ltr" dominant-baseline="text-before-edge">3 Tier Achitecture</text></g><g stroke-linecap="round" transform="translate(368.75003814697266 519.0000152587891) rotate(0 148.49998474121094 202.00000762939453)"><path d="M32 0 M32 0 C93.19 0, 154.39 0, 265 0 M32 0 C123.05 0, 214.11 0, 265 0 M265 0 C286.33 0, 297 10.67, 297 32 M265 0 C286.33 0, 297 10.67, 297 32 M297 32 C297 132, 297 231.99, 297 372 M297 32 C297 138.61, 297 245.23, 297 372 M297 372 C297 393.33, 286.33 404, 265 404 M297 372 C297 393.33, 286.33 404, 265 404 M265 404 C198.72 404, 132.45 404, 32 404 M265 404 C198 404, 130.99 404, 32 404 M32 404 C10.67 404, 0 393.33, 0 372 M32 404 C10.67 404, 0 393.33, 0 372 M0 372 C0 269.74, 0 167.48, 0 32 M0 372 C0 292.11, 0 212.21, 0 32 M0 32 C0 10.67, 10.67 0, 32 0 M0 32 C0 10.67, 10.67 0, 32 0" stroke="#000000" stroke-width="1" fill="none"></path></g><g stroke-linecap="round"><g transform="translate(673.7500381469727 585) rotate(0 84.00001525878906 0)"><path d="M0 0 C28 0, 140 0, 168 0 M0 0 C28 0, 140 0, 168 0" stroke="#000000" stroke-width="1" fill="none"></path></g><g transform="translate(673.7500381469727 585) rotate(0 84.00001525878906 0)"><path d="M139.81 10.26 C147.67 7.4, 155.53 4.54, 168 0 M139.81 10.26 C147.79 7.35, 155.78 4.45, 168 0" stroke="#000000" stroke-width="1" fill="none"></path></g><g transform="translate(673.7500381469727 585) rotate(0 84.00001525878906 0)"><path d="M139.81 -10.26 C147.67 -7.4, 155.53 -4.54, 168 0 M139.81 -10.26 C147.79 -7.35, 155.78 -4.45, 168 0" stroke="#000000" stroke-width="1" fill="none"></path></g></g><mask></mask><g transform="translate(856.7499923706055 573.9999771118164) rotate(0 87.822265625 11.5)"><text x="0" y="0" font-family="Helvetica, Segoe UI Emoji" font-size="20px" fill="#000000" text-anchor="start" style="white-space: pre;" direction="ltr" dominant-baseline="text-before-edge">Native App wrapper</text></g><g stroke-linecap="round" transform="translate(858.7500381469727 619.0000534057617) rotate(0 132.00000762939453 115.49997329711914)"><path d="M32 0 M32 0 C89.01 0, 146.03 0, 232 0 M32 0 C82.91 0, 133.83 0, 232 0 M232 0 C253.33 0, 264 10.67, 264 32 M232 0 C253.33 0, 264 10.67, 264 32 M264 32 C264 89.58, 264 147.16, 264 199 M264 32 C264 79.46, 264 126.92, 264 199 M264 199 C264 220.33, 253.33 231, 232 231 M264 199 C264 220.33, 253.33 231, 232 231 M232 231 C152.45 231, 72.9 231, 32 231 M232 231 C184.24 231, 136.48 231, 32 231 M32 231 C10.67 231, 0 220.33, 0 199 M32 231 C10.67 231, 0 220.33, 0 199 M0 199 C0 156.49, 0 113.98, 0 32 M0 199 C0 136.08, 0 73.15, 0 32 M0 32 C0 10.67, 10.67 0, 32 0 M0 32 C0 10.67, 10.67 0, 32 0" stroke="#000000" stroke-width="1" fill="none"></path></g><g transform="translate(862.5000381469727 653.75) rotate(0 106.71875 11.5)"><text x="0" y="0" font-family="Helvetica, Segoe UI Emoji" font-size="20px" fill="#000000" text-anchor="start" style="white-space: pre;" direction="ltr" dominant-baseline="text-before-edge">1. Hardware capabilities</text></g><g transform="translate(92.81253814697266 998.75) rotate(0 225.703125 80.5)"><text x="0" y="0" font-family="Helvetica, Segoe UI Emoji" font-size="20px" fill="#000000" text-anchor="start" style="white-space: pre;" direction="ltr" dominant-baseline="text-before-edge">cons of native app</text><text x="0" y="23" font-family="Helvetica, Segoe UI Emoji" font-size="20px" fill="#000000" text-anchor="start" style="white-space: pre;" direction="ltr" dominant-baseline="text-before-edge">1.  App size will be increase significantly.</text><text x="0" y="46" font-family="Helvetica, Segoe UI Emoji" font-size="20px" fill="#000000" text-anchor="start" style="white-space: pre;" direction="ltr" dominant-baseline="text-before-edge">2.  Bugfixes/Updates need to be installed explicitly.</text><text x="0" y="69" font-family="Helvetica, Segoe UI Emoji" font-size="20px" fill="#000000" text-anchor="start" style="white-space: pre;" direction="ltr" dominant-baseline="text-before-edge">3.  Separate codebase required based on platform.</text><text x="0" y="92" font-family="Helvetica, Segoe UI Emoji" font-size="20px" fill="#000000" text-anchor="start" style="white-space: pre;" direction="ltr" dominant-baseline="text-before-edge">4.  performance depends of client hardware</text><text x="0" y="115" font-family="Helvetica, Segoe UI Emoji" font-size="20px" fill="#000000" text-anchor="start" style="white-space: pre;" direction="ltr" dominant-baseline="text-before-edge"></text><text x="0" y="138" font-family="Helvetica, Segoe UI Emoji" font-size="20px" fill="#000000" text-anchor="start" style="white-space: pre;" direction="ltr" dominant-baseline="text-before-edge"></text></g><g transform="translate(480.00003814697266 1242.1875) rotate(0 133.935546875 34.5)"><text x="0" y="0" font-family="Helvetica, Segoe UI Emoji" font-size="20px" fill="#000000" text-anchor="start" style="white-space: pre;" direction="ltr" dominant-baseline="text-before-edge">VCS - Version Control System</text><text x="0" y="23" font-family="Helvetica, Segoe UI Emoji" font-size="20px" fill="#000000" text-anchor="start" style="white-space: pre;" direction="ltr" dominant-baseline="text-before-edge"></text><text x="0" y="46" font-family="Helvetica, Segoe UI Emoji" font-size="20px" fill="#000000" text-anchor="start" style="white-space: pre;" direction="ltr" dominant-baseline="text-before-edge"></text></g><g transform="translate(330.00003814697266 1382.1875) rotate(0 265.0927734375 23)"><text x="0" y="0" font-family="Helvetica, Segoe UI Emoji" font-size="20px" fill="#000000" text-anchor="start" style="white-space: pre;" direction="ltr" dominant-baseline="text-before-edge">1.  for the tracked files we can revisit any milestone(commit)</text><text x="0" y="23" font-family="Helvetica, Segoe UI Emoji" font-size="20px" fill="#000000" text-anchor="start" style="white-space: pre;" direction="ltr" dominant-baseline="text-before-edge">2. we  can have multiple version of the same file</text></g><g stroke-linecap="round" transform="translate(10 1499.5000076293945) rotate(0 100 128.99999618530273)"><path d="M32 0 M32 0 C85.54 0, 139.08 0, 168 0 M32 0 C67.41 0, 102.81 0, 168 0 M168 0 C189.33 0, 200 10.67, 200 32 M168 0 C189.33 0, 200 10.67, 200 32 M200 32 C200 80.14, 200 128.27, 200 226 M200 32 C200 109.31, 200 186.62, 200 226 M200 226 C200 247.33, 189.33 258, 168 258 M200 226 C200 247.33, 189.33 258, 168 258 M168 258 C140.62 258, 113.25 258, 32 258 M168 258 C134.09 258, 100.18 258, 32 258 M32 258 C10.67 258, 0 247.33, 0 226 M32 258 C10.67 258, 0 247.33, 0 226 M0 226 C0 176.03, 0 126.05, 0 32 M0 226 C0 177.35, 0 128.7, 0 32 M0 32 C0 10.67, 10.67 0, 32 0 M0 32 C0 10.67, 10.67 0, 32 0" stroke="#000000" stroke-width="1" fill="none"></path></g><g stroke-linecap="round" transform="translate(330 1496.5000534057617) rotate(0 100 128.99999618530273)"><path d="M32 0 M32 0 C85.87 0, 139.73 0, 168 0 M32 0 C83.73 0, 135.47 0, 168 0 M168 0 C189.33 0, 200 10.67, 200 32 M168 0 C189.33 0, 200 10.67, 200 32 M200 32 C200 87.41, 200 142.83, 200 226 M200 32 C200 77.92, 200 123.83, 200 226 M200 226 C200 247.33, 189.33 258, 168 258 M200 226 C200 247.33, 189.33 258, 168 258 M168 258 C125.7 258, 83.4 258, 32 258 M168 258 C122.72 258, 77.44 258, 32 258 M32 258 C10.67 258, 0 247.33, 0 226 M32 258 C10.67 258, 0 247.33, 0 226 M0 226 C0 175.85, 0 125.7, 0 32 M0 226 C0 181.91, 0 137.82, 0 32 M0 32 C0 10.67, 10.67 0, 32 0 M0 32 C0 10.67, 10.67 0, 32 0" stroke="#000000" stroke-width="1" fill="none"></path></g><g transform="translate(58.999977111816406 1473.499984741211) rotate(0 37.236328125 11.5)"><text x="0" y="0" font-family="Helvetica, Segoe UI Emoji" font-size="20px" fill="#000000" text-anchor="start" style="white-space: pre;" direction="ltr" dominant-baseline="text-before-edge">Original </text></g><g transform="translate(378.9999771118164 1470.5000305175781) rotate(0 61.1376953125 11.5)"><text x="0" y="0" font-family="Helvetica, Segoe UI Emoji" font-size="20px" fill="#000000" text-anchor="start" style="white-space: pre;" direction="ltr" dominant-baseline="text-before-edge">copy Original </text></g><g transform="translate(60.249977111816406 1588.499984741211) rotate(0 16.123046875 11.5)"><text x="0" y="0" font-family="Helvetica, Segoe UI Emoji" font-size="20px" fill="#000000" text-anchor="start" style="white-space: pre;" direction="ltr" dominant-baseline="text-before-edge">abc</text></g><g transform="translate(380.2499771118164 1585.5000305175781) rotate(0 15 11.5)"><text x="0" y="0" font-family="Helvetica, Segoe UI Emoji" font-size="20px" fill="#000000" text-anchor="start" style="white-space: pre;" direction="ltr" dominant-baseline="text-before-edge">xyz</text></g><g stroke-linecap="round" transform="translate(676.0000610351562 1493.5000228881836) rotate(0 100 128.99999618530273)"><path d="M32 0 M32 0 C60.36 0, 88.72 0, 168 0 M32 0 C67.49 0, 102.99 0, 168 0 M168 0 C189.33 0, 200 10.67, 200 32 M168 0 C189.33 0, 200 10.67, 200 32 M200 32 C200 98.05, 200 164.09, 200 226 M200 32 C200 108.71, 200 185.41, 200 226 M200 226 C200 247.33, 189.33 258, 168 258 M200 226 C200 247.33, 189.33 258, 168 258 M168 258 C128.01 258, 88.02 258, 32 258 M168 258 C114.33 258, 60.65 258, 32 258 M32 258 C10.67 258, 0 247.33, 0 226 M32 258 C10.67 258, 0 247.33, 0 226 M0 226 C0 177.85, 0 129.7, 0 32 M0 226 C0 178.85, 0 131.7, 0 32 M0 32 C0 10.67, 10.67 0, 32 0 M0 32 C0 10.67, 10.67 0, 32 0" stroke="#000000" stroke-width="1" fill="none"></path></g><g transform="translate(725.0000381469727 1467.5) rotate(0 37.236328125 11.5)"><text x="0" y="0" font-family="Helvetica, Segoe UI Emoji" font-size="20px" fill="#000000" text-anchor="start" style="white-space: pre;" direction="ltr" dominant-baseline="text-before-edge">Original </text></g><g transform="translate(745.2500534057617 1599.5000076293945) rotate(0 16.123046875 11.5)"><text x="0" y="0" font-family="Helvetica, Segoe UI Emoji" font-size="20px" fill="#000000" text-anchor="start" style="white-space: pre;" direction="ltr" dominant-baseline="text-before-edge">abc</text></g><g stroke-linecap="round"><g transform="translate(888.0000686645508 1563.5000228881836) rotate(0 77.5 -28.000011444091797)"><path d="M0 0 C25.83 -9.33, 129.17 -46.67, 155 -56 M0 0 C25.83 -9.33, 129.17 -46.67, 155 -56" stroke="#000000" stroke-width="1" fill="none"></path></g><g transform="translate(888.0000686645508 1563.5000228881836) rotate(0 77.5 -28.000011444091797)"><path d="M131.97 -36.77 C141.11 -44.4, 150.25 -52.03, 155 -56 M131.97 -36.77 C138.77 -42.44, 145.56 -48.12, 155 -56" stroke="#000000" stroke-width="1" fill="none"></path></g><g transform="translate(888.0000686645508 1563.5000228881836) rotate(0 77.5 -28.000011444091797)"><path d="M125 -56.07 C136.91 -56.04, 148.81 -56.01, 155 -56 M125 -56.07 C133.85 -56.05, 142.7 -56.03, 155 -56" stroke="#000000" stroke-width="1" fill="none"></path></g></g><mask></mask><g transform="translate(940.0000381469727 1510) rotate(0 10.5615234375 11.5)"><text x="0" y="0" font-family="Helvetica, Segoe UI Emoji" font-size="20px" fill="#000000" text-anchor="start" style="white-space: pre;" direction="ltr" dominant-baseline="text-before-edge">v1</text></g><g transform="translate(916.0000228881836 1620.9999465942383) rotate(0 10.5615234375 11.5)"><text x="0" y="0" font-family="Helvetica, Segoe UI Emoji" font-size="20px" fill="#000000" text-anchor="start" style="white-space: pre;" direction="ltr" dominant-baseline="text-before-edge">v2</text></g><g transform="translate(1062.5000381469727 1491.25) rotate(0 16.123046875 11.5)"><text x="0" y="0" font-family="Helvetica, Segoe UI Emoji" font-size="20px" fill="#000000" text-anchor="start" style="white-space: pre;" direction="ltr" dominant-baseline="text-before-edge">abc</text></g><g transform="translate(1038.5000228881836 1599.2499923706055) rotate(0 16.123046875 11.5)"><text x="0" y="0" font-family="Helvetica, Segoe UI Emoji" font-size="20px" fill="#000000" text-anchor="start" style="white-space: pre;" direction="ltr" dominant-baseline="text-before-edge">abc</text></g><g transform="translate(1353.500099182129 1613.2500076293945) rotate(0 15 11.5)"><text x="0" y="0" font-family="Helvetica, Segoe UI Emoji" font-size="20px" fill="#000000" text-anchor="start" style="white-space: pre;" direction="ltr" dominant-baseline="text-before-edge">xyz</text></g><g transform="translate(1102.500114440918 1699.2499923706055) rotate(0 16.123046875 11.5)"><text x="0" y="0" font-family="Helvetica, Segoe UI Emoji" font-size="20px" fill="#000000" text-anchor="start" style="white-space: pre;" direction="ltr" dominant-baseline="text-before-edge">abc</text></g><g stroke-linecap="round"><g transform="translate(1059.0000534057617 1502.5) rotate(0 21.000022888183594 -0.49999237060546875)"><path d="M0 0 C7 -0.17, 35 -0.83, 42 -1 M0 0 C7 -0.17, 35 -0.83, 42 -1" stroke="#000000" stroke-width="1" fill="none"></path></g></g><mask></mask><g stroke-linecap="round"><g transform="translate(1035.0000381469727 1610.4999923706055) rotate(0 21.000022888183594 -0.49999237060546875)"><path d="M0 0 C7 -0.17, 35 -0.83, 42 -1 M0 0 C7 -0.17, 35 -0.83, 42 -1" stroke="#000000" stroke-width="1" fill="none"></path></g></g><mask></mask><g stroke-linecap="round"><g transform="translate(1099.000129699707 1710.4999923706055) rotate(0 21.000022888183594 -0.49999237060546875)"><path d="M0 0 C7 -0.17, 35 -0.83, 42 -1 M0 0 C7 -0.17, 35 -0.83, 42 -1" stroke="#000000" stroke-width="1" fill="none"></path></g></g><mask></mask><g transform="translate(1118.7500381469727 1495) rotate(0 20.5615234375 11.5)"><text x="0" y="0" font-family="Helvetica, Segoe UI Emoji" font-size="20px" fill="#000000" text-anchor="start" style="white-space: pre;" direction="ltr" dominant-baseline="text-before-edge">ABC</text></g><g transform="translate(1094.7500228881836 1602.9999923706055) rotate(0 15 11.5)"><text x="0" y="0" font-family="Helvetica, Segoe UI Emoji" font-size="20px" fill="#000000" text-anchor="start" style="white-space: pre;" direction="ltr" dominant-baseline="text-before-edge">xyz</text></g><g transform="translate(1396.7500686645508 1612.0000076293945) rotate(0 18.3447265625 11.5)"><text x="0" y="0" font-family="Helvetica, Segoe UI Emoji" font-size="20px" fill="#000000" text-anchor="start" style="white-space: pre;" direction="ltr" dominant-baseline="text-before-edge">qwe</text></g><g transform="translate(1158.750114440918 1702.9999923706055) rotate(0 16.6845703125 11.5)"><text x="0" y="0" font-family="Helvetica, Segoe UI Emoji" font-size="20px" fill="#000000" text-anchor="start" style="white-space: pre;" direction="ltr" dominant-baseline="text-before-edge">123</text></g><g stroke-linecap="round"><g transform="translate(896.0000228881836 1665.5000305175781) rotate(0 87.5 -12.5)"><path d="M0 0 C29.17 -4.17, 145.83 -20.83, 175 -25 M0 0 C29.17 -4.17, 145.83 -20.83, 175 -25" stroke="#000000" stroke-width="1" fill="none"></path></g><g transform="translate(896.0000228881836 1665.5000305175781) rotate(0 87.5 -12.5)"><path d="M148.54 -10.86 C155.91 -14.79, 163.27 -18.73, 175 -25 M148.54 -10.86 C157.77 -15.79, 166.99 -20.72, 175 -25" stroke="#000000" stroke-width="1" fill="none"></path></g><g transform="translate(896.0000228881836 1665.5000305175781) rotate(0 87.5 -12.5)"><path d="M145.64 -31.17 C153.81 -29.45, 161.98 -27.74, 175 -25 M145.64 -31.17 C155.88 -29.02, 166.11 -26.87, 175 -25" stroke="#000000" stroke-width="1" fill="none"></path></g></g><mask></mask><g stroke-linecap="round"><g transform="translate(890.0000381469727 1724.5000457763672) rotate(0 96.50001525878906 -1.0000228881835938)"><path d="M0 0 C32.17 -0.33, 160.83 -1.67, 193 -2 M0 0 C32.17 -0.33, 160.83 -1.67, 193 -2" stroke="#000000" stroke-width="1" fill="none"></path></g><g transform="translate(890.0000381469727 1724.5000457763672) rotate(0 96.50001525878906 -1.0000228881835938)"><path d="M164.92 8.55 C176.15 4.33, 187.37 0.11, 193 -2 M164.92 8.55 C174.88 4.81, 184.85 1.06, 193 -2" stroke="#000000" stroke-width="1" fill="none"></path></g><g transform="translate(890.0000381469727 1724.5000457763672) rotate(0 96.50001525878906 -1.0000228881835938)"><path d="M164.7 -11.97 C176.02 -7.98, 187.33 -4, 193 -2 M164.7 -11.97 C174.75 -8.43, 184.79 -4.89, 193 -2" stroke="#000000" stroke-width="1" fill="none"></path></g></g><mask></mask><g transform="translate(935.0000381469727 1702.5) rotate(0 10.5615234375 11.5)"><text x="0" y="0" font-family="Helvetica, Segoe UI Emoji" font-size="20px" fill="#000000" text-anchor="start" style="white-space: pre;" direction="ltr" dominant-baseline="text-before-edge">vn</text></g><g stroke-linecap="round"><g transform="translate(1134.1875839233398 1638.499984741211) rotate(0 98.9999771118164 -3.4999847412109375)"><path d="M0 0 C33 -1.17, 165 -5.83, 198 -7 M0 0 C33 -1.17, 165 -5.83, 198 -7" stroke="#000000" stroke-width="1" fill="none"></path></g><g transform="translate(1134.1875839233398 1638.499984741211) rotate(0 98.9999771118164 -3.4999847412109375)"><path d="M170.19 4.25 C179.14 0.63, 188.09 -2.99, 198 -7 M170.19 4.25 C180.13 0.23, 190.07 -3.79, 198 -7" stroke="#000000" stroke-width="1" fill="none"></path></g><g transform="translate(1134.1875839233398 1638.499984741211) rotate(0 98.9999771118164 -3.4999847412109375)"><path d="M169.46 -16.26 C178.65 -13.28, 187.84 -10.3, 198 -7 M169.46 -16.26 C179.67 -12.95, 189.87 -9.64, 198 -7" stroke="#000000" stroke-width="1" fill="none"></path></g></g><mask></mask><g transform="translate(1203.4375381469727 1616.25) rotate(0 18.9013671875 11.5)"><text x="0" y="0" font-family="Helvetica, Segoe UI Emoji" font-size="20px" fill="#000000" text-anchor="start" style="white-space: pre;" direction="ltr" dominant-baseline="text-before-edge">v2.1</text></g><g stroke-linecap="round"><g transform="translate(1338.1875228881836 1626.500015258789) rotate(0 25.49999237060547 0.49999237060546875)"><path d="M0 0 C8.5 0.17, 42.5 0.83, 51 1 M0 0 C8.5 0.17, 42.5 0.83, 51 1" stroke="#000000" stroke-width="1" fill="none"></path></g></g><mask></mask><g transform="translate(193.31253051757812 1774.6249389648438) rotate(0 88.3984375 11.5)"><text x="0" y="0" font-family="Helvetica, Segoe UI Emoji" font-size="20px" fill="#000000" text-anchor="start" style="white-space: pre;" direction="ltr" dominant-baseline="text-before-edge">update after backup</text></g><g transform="translate(121.56253814697266 1935.3125) rotate(0 64.4677734375 11.5)"><text x="0" y="0" font-family="Helvetica, Segoe UI Emoji" font-size="20px" fill="#000000" text-anchor="start" style="white-space: pre;" direction="ltr" dominant-baseline="text-before-edge">Untracked File</text></g><g stroke-linecap="round"><g transform="translate(262.81253814697266 1948.3125305175781) rotate(0 58.500003814697266 -1.0000038146972656)"><path d="M0 0 C19.5 -0.33, 97.5 -1.67, 117 -2 M0 0 C19.5 -0.33, 97.5 -1.67, 117 -2" stroke="#000000" stroke-width="1" fill="none"></path></g><g transform="translate(262.81253814697266 1948.3125305175781) rotate(0 58.500003814697266 -1.0000038146972656)"><path d="M88.99 8.74 C98.65 5.04, 108.31 1.33, 117 -2 M88.99 8.74 C96.28 5.94, 103.57 3.15, 117 -2" stroke="#000000" stroke-width="1" fill="none"></path></g><g transform="translate(262.81253814697266 1948.3125305175781) rotate(0 58.500003814697266 -1.0000038146972656)"><path d="M88.64 -11.78 C98.42 -8.41, 108.2 -5.03, 117 -2 M88.64 -11.78 C96.02 -9.23, 103.41 -6.69, 117 -2" stroke="#000000" stroke-width="1" fill="none"></path></g></g><mask></mask><g transform="translate(281.81251525878906 1922.3125076293945) rotate(0 30.0244140625 11.5)"><text x="0" y="0" font-family="Helvetica, Segoe UI Emoji" font-size="20px" fill="#000000" text-anchor="start" style="white-space: pre;" direction="ltr" dominant-baseline="text-before-edge">git add</text></g><g transform="translate(397.81253814697266 1940.3125) rotate(0 47.255859375 11.5)"><text x="0" y="0" font-family="Helvetica, Segoe UI Emoji" font-size="20px" fill="#000000" text-anchor="start" style="white-space: pre;" direction="ltr" dominant-baseline="text-before-edge">Staged file</text></g><g stroke-linecap="round"><g transform="translate(504.81258392333984 1952.3125076293945) rotate(0 90.99998474121094 0)"><path d="M0 0 C30.33 0, 151.67 0, 182 0 M0 0 C30.33 0, 151.67 0, 182 0" stroke="#000000" stroke-width="1" fill="none"></path></g><g transform="translate(504.81258392333984 1952.3125076293945) rotate(0 90.99998474121094 0)"><path d="M153.81 10.26 C160.77 7.73, 167.74 5.19, 182 0 M153.81 10.26 C159.63 8.14, 165.45 6.02, 182 0" stroke="#000000" stroke-width="1" fill="none"></path></g><g transform="translate(504.81258392333984 1952.3125076293945) rotate(0 90.99998474121094 0)"><path d="M153.81 -10.26 C160.77 -7.73, 167.74 -5.19, 182 0 M153.81 -10.26 C159.63 -8.14, 165.45 -6.02, 182 0" stroke="#000000" stroke-width="1" fill="none"></path></g></g><mask></mask><g transform="translate(522.8125381469727 1922.8125) rotate(0 45.5615234375 11.5)"><text x="0" y="0" font-family="Helvetica, Segoe UI Emoji" font-size="20px" fill="#000000" text-anchor="start" style="white-space: pre;" direction="ltr" dominant-baseline="text-before-edge">git commit</text></g><g transform="translate(705.3125381469727 1946.5625) rotate(0 86.708984375 11.5)"><text x="0" y="0" font-family="Helvetica, Segoe UI Emoji" font-size="20px" fill="#000000" text-anchor="start" style="white-space: pre;" direction="ltr" dominant-baseline="text-before-edge">committed changes</text></g><g transform="translate(282.81253814697266 1962.8125) rotate(0 49.4775390625 11.5)"><text x="0" y="0" font-family="Helvetica, Segoe UI Emoji" font-size="20px" fill="#000000" text-anchor="start" style="white-space: pre;" direction="ltr" dominant-baseline="text-before-edge">&lt;filename&gt;</text></g><g stroke-linecap="round"><g transform="translate(607.3125839233398 1440.625) rotate(0 -1.5000152587890625 191.00000381469727)"><path d="M0 0 C-0.5 63.67, -2.5 318.33, -3 382 M0 0 C-0.5 63.67, -2.5 318.33, -3 382" stroke="#000000" stroke-width="1" fill="none"></path></g></g><mask></mask></svg>